<svg width="85" height="16" viewBox="0 0 85 16" fill="none" xmlns="http://www.w3.org/2000/svg">
<path d="M0.0142485 12V0.799999H2.03025V5.04C2.65958 4.24 3.52892 3.84 4.63825 3.84C5.73692 3.84 6.64358 4.21867 7.35825 4.976C8.07292 5.72267 8.43025 6.74133 8.43025 8.032C8.43025 9.312 8.06225 10.3307 7.32625 11.088C6.59025 11.8453 5.68358 12.224 4.60625 12.224C3.47558 12.224 2.61692 11.824 2.03025 11.024V12H0.0142485ZM2.52625 9.696C2.95292 10.1227 3.49158 10.336 4.14225 10.336C4.79292 10.336 5.32625 10.1227 5.74225 9.696C6.16892 9.25867 6.38225 8.704 6.38225 8.032C6.38225 7.36 6.16892 6.81067 5.74225 6.384C5.32625 5.94667 4.79292 5.728 4.14225 5.728C3.49158 5.728 2.95292 5.94667 2.52625 6.384C2.11025 6.81067 1.90225 7.36 1.90225 8.032C1.90225 8.704 2.11025 9.25867 2.52625 9.696ZM17.0874 12H15.0394C14.7834 11.68 14.6554 11.2587 14.6554 10.736C14.1007 11.728 13.2154 12.224 11.9994 12.224C11.21 12.224 10.5647 12 10.0634 11.552C9.57271 11.0933 9.32737 10.4907 9.32737 9.744C9.32737 8.98667 9.58871 8.39467 10.1114 7.968C10.6447 7.53067 11.3274 7.248 12.1594 7.12L14.5434 6.752V6.448C14.5434 5.648 14.058 5.248 13.0874 5.248C12.6394 5.248 12.2874 5.33333 12.0314 5.504C11.786 5.67467 11.6634 5.888 11.6634 6.144C11.6634 6.208 11.674 6.272 11.6954 6.336L9.88737 6.944C9.79137 6.73067 9.74337 6.50667 9.74337 6.272C9.74337 5.62133 10.0474 5.056 10.6554 4.576C11.2634 4.08533 12.074 3.84 13.0874 3.84C14.218 3.84 15.0767 4.08 15.6634 4.56C16.2607 5.04 16.5594 5.76 16.5594 6.72V10.032C16.5594 10.832 16.7354 11.488 17.0874 12ZM12.4794 10.592C13.0874 10.592 13.5834 10.3947 13.9674 10C14.3514 9.59467 14.5434 9.024 14.5434 8.288V8.144L12.6234 8.464C11.738 8.61333 11.2954 9.00267 11.2954 9.632C11.2954 9.94133 11.402 10.1813 11.6154 10.352C11.8287 10.512 12.1167 10.592 12.4794 10.592ZM24.1197 8.88L25.7517 9.936C24.9837 11.4613 23.7464 12.224 22.0397 12.224C20.8451 12.224 19.8477 11.84 19.0477 11.072C18.2584 10.2933 17.8637 9.28 17.8637 8.032C17.8637 6.79467 18.2691 5.78667 19.0797 5.008C19.8904 4.22933 20.8771 3.84 22.0397 3.84C22.9144 3.84 23.6664 4.032 24.2957 4.416C24.9357 4.78933 25.3944 5.31733 25.6717 6L24.0237 7.088C23.6077 6.18133 22.9411 5.728 22.0237 5.728C21.4157 5.728 20.9091 5.94133 20.5037 6.368C20.1091 6.784 19.9117 7.33867 19.9117 8.032C19.9117 8.736 20.1091 9.296 20.5037 9.712C20.8984 10.128 21.4051 10.336 22.0237 10.336C22.5357 10.336 22.9517 10.2187 23.2717 9.984C23.6024 9.73867 23.8851 9.37067 24.1197 8.88ZM34.4039 6.64V12H32.3879V7.424C32.3879 6.89067 32.2492 6.47467 31.9719 6.176C31.7052 5.87733 31.3105 5.728 30.7879 5.728C30.2225 5.728 29.7532 5.936 29.3799 6.352C29.0172 6.768 28.8359 7.30667 28.8359 7.968V12H26.8199V0.799999H28.8359V5.312C29.4652 4.33067 30.3825 3.84 31.5879 3.84C32.4519 3.84 33.1345 4.096 33.6359 4.608C34.1479 5.10933 34.4039 5.78667 34.4039 6.64ZM48.1635 0.799999V12H46.1475V10.88C45.9235 11.2747 45.5928 11.6 45.1555 11.856C44.7288 12.1013 44.2275 12.224 43.6515 12.224C42.5315 12.224 41.5982 11.8453 40.8515 11.088C40.1155 10.3307 39.7475 9.312 39.7475 8.032C39.7475 6.77333 40.1368 5.76 40.9155 4.992C41.7048 4.224 42.6168 3.84 43.6515 3.84C44.8248 3.84 45.6568 4.24 46.1475 5.04V0.799999H48.1635ZM42.4355 9.696C42.8622 10.1227 43.3955 10.336 44.0355 10.336C44.6755 10.336 45.2088 10.1227 45.6355 9.696C46.0622 9.25867 46.2755 8.704 46.2755 8.032C46.2755 7.36 46.0622 6.81067 45.6355 6.384C45.2088 5.94667 44.6755 5.728 44.0355 5.728C43.3955 5.728 42.8622 5.94667 42.4355 6.384C42.0088 6.81067 41.7955 7.36 41.7955 8.032C41.7955 8.704 42.0088 9.25867 42.4355 9.696ZM57.1593 12H55.1113C54.8553 11.68 54.7273 11.2587 54.7273 10.736C54.1726 11.728 53.2873 12.224 52.0713 12.224C51.2819 12.224 50.6366 12 50.1353 11.552C49.6446 11.0933 49.3993 10.4907 49.3993 9.744C49.3993 8.98667 49.6606 8.39467 50.1833 7.968C50.7166 7.53067 51.3993 7.248 52.2313 7.12L54.6153 6.752V6.448C54.6153 5.648 54.1299 5.248 53.1593 5.248C52.7113 5.248 52.3593 5.33333 52.1033 5.504C51.8579 5.67467 51.7353 5.888 51.7353 6.144C51.7353 6.208 51.7459 6.272 51.7673 6.336L49.9593 6.944C49.8633 6.73067 49.8153 6.50667 49.8153 6.272C49.8153 5.62133 50.1193 5.056 50.7273 4.576C51.3353 4.08533 52.1459 3.84 53.1593 3.84C54.2899 3.84 55.1486 4.08 55.7353 4.56C56.3326 5.04 56.6313 5.76 56.6313 6.72V10.032C56.6313 10.832 56.8073 11.488 57.1593 12ZM52.5513 10.592C53.1593 10.592 53.6553 10.3947 54.0393 10C54.4233 9.59467 54.6153 9.024 54.6153 8.288V8.144L52.6953 8.464C51.8099 8.61333 51.3673 9.00267 51.3673 9.632C51.3673 9.94133 51.4739 10.1813 51.6873 10.352C51.9006 10.512 52.1886 10.592 52.5513 10.592ZM57.494 5.696V4.064H58.726V1.92H60.742V4.064H62.47V5.696H60.742V9.312C60.742 10.0587 61.078 10.432 61.75 10.432C61.9847 10.432 62.2087 10.4 62.422 10.336L62.614 12C62.2087 12.1493 61.7607 12.224 61.27 12.224C59.574 12.224 58.726 11.3813 58.726 9.696V5.696H57.494ZM63.7664 12V4.064H65.7824V12H63.7664ZM63.6704 2.912V0.799999H65.8784V2.912H63.6704ZM74.9504 6.592V12H72.9344V7.424C72.9344 6.29333 72.3957 5.728 71.3184 5.728C70.785 5.728 70.3424 5.936 69.9904 6.352C69.649 6.768 69.4784 7.30667 69.4784 7.968V12H67.4624V4.064H69.4784V5.344C70.129 4.34133 71.025 3.84 72.1664 3.84C73.009 3.84 73.681 4.09067 74.1824 4.592C74.6944 5.09333 74.9504 5.76 74.9504 6.592ZM76.5509 11.856L78.4709 12.448C78.4069 12.6293 78.3749 12.8107 78.3749 12.992C78.3749 13.2587 78.5295 13.472 78.8389 13.632C79.1482 13.8027 79.5802 13.888 80.1349 13.888C81.4362 13.888 82.0869 13.1627 82.0869 11.712V10.688C81.6069 11.4773 80.8549 11.872 79.8309 11.872C78.7642 11.872 77.8575 11.4933 77.1109 10.736C76.3749 9.97867 76.0069 9.01867 76.0069 7.856C76.0069 6.69333 76.3855 5.73333 77.1429 4.976C77.9002 4.21867 78.8015 3.84 79.8469 3.84C80.8495 3.84 81.5962 4.20267 82.0869 4.928V4.064H84.1029V11.456C84.1029 12.768 83.7455 13.7653 83.0309 14.448C82.3162 15.1413 81.3509 15.488 80.1349 15.488C78.9509 15.488 78.0175 15.2427 77.3349 14.752C76.6629 14.272 76.3269 13.6107 76.3269 12.768C76.3269 12.4267 76.4015 12.1227 76.5509 11.856ZM80.0549 5.6C79.4682 5.6 78.9722 5.80267 78.5669 6.208C78.1615 6.60267 77.9589 7.152 77.9589 7.856C77.9589 8.56 78.1615 9.11467 78.5669 9.52C78.9722 9.91467 79.4682 10.112 80.0549 10.112C80.6522 10.112 81.1589 9.90933 81.5749 9.504C81.9909 9.09867 82.1989 8.54933 82.1989 7.856C82.1989 7.16267 81.9909 6.61333 81.5749 6.208C81.1589 5.80267 80.6522 5.6 80.0549 5.6Z" fill="#141416"/>
</svg>
