<svg width="766" height="48" viewBox="0 0 766 48" fill="none" xmlns="http://www.w3.org/2000/svg">
<path d="M16 8C7.2 8 0 15.2 0 24C0 32.8 7.2 40 16 40C24.8 40 32 32.8 32 24C32 15.2 24.8 8 16 8ZM24.1333 25.3333C24.4 27.7333 25.3333 30 26.6667 32C26.1333 32.6667 25.4667 33.3333 24.8 34C22.8 31.4667 21.6 28.5333 21.3333 25.3333H17.3333V37.2C16.9333 37.2 16.4 37.3333 16 37.3333C15.6 37.3333 15.0667 37.3333 14.6667 37.2V25.3333H10.6667C10.4 28.5333 9.2 31.4667 7.2 34C6.53333 33.3333 5.86667 32.6667 5.33333 32C6.8 30 7.73333 27.7333 7.86667 25.3333H2.8C2.66667 24.9333 2.66667 24.4 2.66667 24C2.66667 23.6 2.66667 23.0667 2.8 22.6667H8C7.73333 20.2667 6.8 18 5.33333 16C5.86667 15.3333 6.53333 14.6667 7.2 14C9.2 16.5333 10.4 19.4667 10.6667 22.6667H14.6667V10.8C15.0667 10.6667 15.6 10.6667 16 10.6667C16.4 10.6667 16.9333 10.6667 17.3333 10.8V22.6667H21.3333C21.6 19.4667 22.8 16.5333 24.8 14C25.4667 14.6667 26.1333 15.3333 26.6667 16C25.2 18 24.2667 20.2667 24.1333 22.6667H29.3333C29.3333 23.0667 29.4667 23.6 29.4667 24C29.4667 24.4 29.4667 24.9333 29.3333 25.3333H24.1333Z" fill="#23262F"/>
<path d="M48.6999 33.275C47.8999 33.275 47.1749 33.1083 46.5249 32.775C45.8749 32.4416 45.3916 32.05 45.0749 31.6V33H41.6499V14.25H45.0749V21.9C45.3916 21.45 45.8749 21.0583 46.5249 20.725C47.1749 20.3916 47.8999 20.225 48.6999 20.225C50.3499 20.225 51.7416 20.8666 52.8749 22.15C54.0082 23.4333 54.5749 24.9666 54.5749 26.75C54.5749 28.5333 54.0082 30.0666 52.8749 31.35C51.7416 32.6333 50.3499 33.275 48.6999 33.275ZM45.6499 29.2C46.2332 29.8333 46.9999 30.15 47.9499 30.15C48.8999 30.15 49.6582 29.8333 50.2249 29.2C50.8082 28.5666 51.0999 27.75 51.0999 26.75C51.0999 25.75 50.8082 24.9333 50.2249 24.3C49.6582 23.6666 48.8999 23.35 47.9499 23.35C46.9999 23.35 46.2332 23.6666 45.6499 24.3C45.0832 24.9333 44.7999 25.75 44.7999 26.75C44.7999 27.75 45.0832 28.5666 45.6499 29.2Z" fill="#23262F"/>
<path d="M61.6546 33.275C60.0046 33.275 58.6129 32.6333 57.4796 31.35C56.3463 30.0666 55.7796 28.5333 55.7796 26.75C55.7796 24.9666 56.3463 23.4333 57.4796 22.15C58.6129 20.8666 60.0046 20.225 61.6546 20.225C62.4546 20.225 63.1713 20.3916 63.8046 20.725C64.4379 21.0583 64.9213 21.45 65.2546 21.9V20.5H68.6796V33H65.2546V31.6C64.9213 32.05 64.4379 32.4416 63.8046 32.775C63.1713 33.1083 62.4546 33.275 61.6546 33.275ZM60.0796 29.2C60.6629 29.8333 61.4296 30.15 62.3796 30.15C63.3296 30.15 64.0879 29.8333 64.6546 29.2C65.2379 28.5666 65.5296 27.75 65.5296 26.75C65.5296 25.75 65.2379 24.9333 64.6546 24.3C64.0879 23.6666 63.3296 23.35 62.3796 23.35C61.4296 23.35 60.6629 23.6666 60.0796 24.3C59.5129 24.9333 59.2296 25.75 59.2296 26.75C59.2296 27.75 59.5129 28.5666 60.0796 29.2Z" fill="#23262F"/>
<path d="M77.3343 33.275C75.4676 33.275 73.8926 32.6583 72.6093 31.425C71.3426 30.175 70.7093 28.6166 70.7093 26.75C70.7093 24.8833 71.3426 23.3333 72.6093 22.1C73.8926 20.85 75.4676 20.225 77.3343 20.225C78.6176 20.225 79.7843 20.5583 80.8343 21.225C81.9009 21.875 82.7093 22.7416 83.2593 23.825L80.2843 25.425C80.0176 24.825 79.6259 24.3416 79.1093 23.975C78.6093 23.6083 78.0176 23.425 77.3343 23.425C76.4343 23.425 75.6759 23.7416 75.0593 24.375C74.4593 25.0083 74.1593 25.8 74.1593 26.75C74.1593 27.7 74.4593 28.4916 75.0593 29.125C75.6759 29.7583 76.4343 30.075 77.3343 30.075C78.0176 30.075 78.6093 29.8916 79.1093 29.525C79.6259 29.1583 80.0176 28.675 80.2843 28.075L83.2593 29.675C82.7093 30.7583 81.9009 31.6333 80.8343 32.3C79.7843 32.95 78.6176 33.275 77.3343 33.275Z" fill="#23262F"/>
<path d="M88.3747 33H84.9497V14.25H88.3747V21.925C89.1414 20.7916 90.333 20.225 91.9497 20.225C93.4497 20.225 94.6247 20.725 95.4747 21.725C96.3414 22.7083 96.7747 24.025 96.7747 25.675V33H93.3497V26.25C93.3497 25.3333 93.158 24.625 92.7747 24.125C92.3914 23.6083 91.8497 23.35 91.1497 23.35C90.3164 23.35 89.6414 23.65 89.1247 24.25C88.6247 24.85 88.3747 25.7333 88.3747 26.9V33Z" fill="#23262F"/>
<path d="M109.679 33.275C108.029 33.275 106.637 32.6333 105.504 31.35C104.371 30.0666 103.804 28.5333 103.804 26.75C103.804 24.9666 104.371 23.4333 105.504 22.15C106.637 20.8666 108.029 20.225 109.679 20.225C110.479 20.225 111.196 20.3916 111.829 20.725C112.462 21.0583 112.946 21.45 113.279 21.9V14.25H116.704V33H113.279V31.6C112.946 32.05 112.462 32.4416 111.829 32.775C111.196 33.1083 110.479 33.275 109.679 33.275ZM108.104 29.2C108.687 29.8333 109.454 30.15 110.404 30.15C111.354 30.15 112.112 29.8333 112.679 29.2C113.262 28.5666 113.554 27.75 113.554 26.75C113.554 25.75 113.262 24.9333 112.679 24.3C112.112 23.6666 111.354 23.35 110.404 23.35C109.454 23.35 108.687 23.6666 108.104 24.3C107.537 24.9333 107.254 25.75 107.254 26.75C107.254 27.75 107.537 28.5666 108.104 29.2Z" fill="#23262F"/>
<path d="M124.609 33.275C122.959 33.275 121.567 32.6333 120.434 31.35C119.3 30.0666 118.734 28.5333 118.734 26.75C118.734 24.9666 119.3 23.4333 120.434 22.15C121.567 20.8666 122.959 20.225 124.609 20.225C125.409 20.225 126.125 20.3916 126.759 20.725C127.392 21.0583 127.875 21.45 128.209 21.9V20.5H131.634V33H128.209V31.6C127.875 32.05 127.392 32.4416 126.759 32.775C126.125 33.1083 125.409 33.275 124.609 33.275ZM123.034 29.2C123.617 29.8333 124.384 30.15 125.334 30.15C126.284 30.15 127.042 29.8333 127.609 29.2C128.192 28.5666 128.484 27.75 128.484 26.75C128.484 25.75 128.192 24.9333 127.609 24.3C127.042 23.6666 126.284 23.35 125.334 23.35C124.384 23.35 123.617 23.6666 123.034 24.3C122.467 24.9333 122.184 25.75 122.184 26.75C122.184 27.75 122.467 28.5666 123.034 29.2Z" fill="#23262F"/>
<path d="M140.513 33.15C139.113 33.15 137.963 32.7666 137.063 32C136.18 31.2166 135.738 30.0916 135.738 28.625V23.5H133.213V20.5H135.738V17.025H139.163V20.5H142.688V23.5H139.163V27.95C139.163 28.7166 139.33 29.2666 139.663 29.6C139.997 29.9166 140.538 30.075 141.288 30.075C141.822 30.075 142.288 30 142.688 29.85V32.875C142.088 33.0583 141.363 33.15 140.513 33.15Z" fill="#23262F"/>
<path d="M146.332 18.45C145.749 18.45 145.241 18.2416 144.807 17.825C144.374 17.3916 144.157 16.875 144.157 16.275C144.157 15.675 144.374 15.1666 144.807 14.75C145.241 14.3166 145.749 14.1 146.332 14.1C146.949 14.1 147.466 14.3166 147.882 14.75C148.316 15.1666 148.532 15.675 148.532 16.275C148.532 16.875 148.316 17.3916 147.882 17.825C147.466 18.2416 146.949 18.45 146.332 18.45ZM144.632 33V20.5H148.057V33H144.632Z" fill="#23262F"/>
<path d="M150.846 33V20.5H154.271V21.925C155.038 20.7916 156.23 20.225 157.846 20.225C159.346 20.225 160.521 20.725 161.371 21.725C162.238 22.7083 162.671 24.025 162.671 25.675V33H159.246V26.25C159.246 25.3333 159.055 24.625 158.671 24.125C158.288 23.6083 157.746 23.35 157.046 23.35C156.213 23.35 155.538 23.65 155.021 24.25C154.521 24.85 154.271 25.7333 154.271 26.9V33H150.846Z" fill="#23262F"/>
<path d="M168.887 28.85C169.504 29.45 170.254 29.75 171.137 29.75C172.02 29.75 172.77 29.45 173.387 28.85C174.004 28.25 174.312 27.4833 174.312 26.55C174.312 25.6166 174.004 24.85 173.387 24.25C172.77 23.65 172.02 23.35 171.137 23.35C170.254 23.35 169.504 23.65 168.887 24.25C168.27 24.85 167.962 25.6166 167.962 26.55C167.962 27.4833 168.27 28.25 168.887 28.85ZM170.737 38.475C168.237 38.475 166.295 37.8083 164.912 36.475L166.787 33.925C167.837 34.9583 169.137 35.475 170.687 35.475C171.687 35.475 172.495 35.1583 173.112 34.525C173.729 33.8916 174.037 33.0666 174.037 32.05V31.2C173.687 31.6833 173.187 32.0833 172.537 32.4C171.887 32.7 171.179 32.85 170.412 32.85C168.779 32.85 167.387 32.2416 166.237 31.025C165.087 29.7916 164.512 28.3 164.512 26.55C164.512 24.7833 165.087 23.2916 166.237 22.075C167.387 20.8416 168.779 20.225 170.412 20.225C171.195 20.225 171.904 20.3833 172.537 20.7C173.187 21 173.687 21.4 174.037 21.9V20.5H177.462V32.025C177.462 34.175 176.845 35.7833 175.612 36.85C174.379 37.9333 172.754 38.475 170.737 38.475Z" fill="#23262F"/>
<rect x="228" width="1" height="48" fill="#E6E8EC"/>
<path d="M285.82 29H287.885V25.1172H291.897V23.4834H287.885V20.8379H292.28V19.1357H285.82V29ZM296.464 29.1504C298.556 29.1504 299.567 27.9131 299.793 26.833L299.813 26.7578H297.981L297.968 26.7988C297.824 27.209 297.325 27.6602 296.505 27.6602C295.486 27.6602 294.851 26.9766 294.83 25.8076H299.875V25.1924C299.875 22.9775 298.528 21.5215 296.382 21.5215C294.235 21.5215 292.861 23.0117 292.861 25.3428V25.3496C292.861 27.6943 294.222 29.1504 296.464 29.1504ZM296.416 23.0117C297.243 23.0117 297.838 23.5381 297.961 24.5498H294.851C294.98 23.5586 295.596 23.0117 296.416 23.0117ZM303.088 29.1162C304.052 29.1162 304.831 28.6582 305.248 27.9062H305.289V29H307.285V23.9756C307.285 22.499 306.062 21.5215 304.168 21.5215C302.233 21.5215 301.071 22.4922 300.962 23.8457L300.955 23.9277H302.78L302.794 23.8662C302.89 23.3945 303.341 23.0459 304.086 23.0459C304.865 23.0459 305.289 23.4492 305.289 24.0986V24.5498L303.478 24.6592C301.659 24.7754 300.627 25.5547 300.627 26.8877V26.9014C300.627 28.1934 301.618 29.1162 303.088 29.1162ZM302.603 26.7988V26.7852C302.603 26.2656 303.006 25.9375 303.778 25.8896L305.289 25.7939V26.3203C305.289 27.0859 304.633 27.6602 303.737 27.6602C303.047 27.6602 302.603 27.3389 302.603 26.7988ZM311.489 29.1504C311.906 29.1504 312.228 29.1094 312.453 29.0752V27.6123C312.33 27.626 312.2 27.6465 312.022 27.6465C311.421 27.6465 311.113 27.4141 311.113 26.7305V23.1758H312.453V21.6719H311.113V19.8809H309.097V21.6719H308.078V23.1758H309.097V26.9492C309.097 28.5215 309.862 29.1504 311.489 29.1504ZM316.049 29.1504C317.156 29.1504 317.908 28.6309 318.284 27.79H318.325V29H320.321V21.6719H318.325V25.8828C318.325 26.8398 317.758 27.4961 316.862 27.4961C315.967 27.4961 315.516 26.9424 315.516 25.9854V21.6719H313.52V26.4023C313.52 28.1182 314.436 29.1504 316.049 29.1504ZM321.62 29H323.616V24.8711C323.616 23.8389 324.19 23.2441 325.175 23.2441C325.462 23.2441 325.735 23.2852 325.899 23.3535V21.5967C325.749 21.5557 325.544 21.5215 325.325 21.5215C324.457 21.5215 323.835 22.0342 323.623 22.9229H323.582V21.6719H321.62V29ZM329.81 29.1504C331.901 29.1504 332.913 27.9131 333.139 26.833L333.159 26.7578H331.327L331.313 26.7988C331.17 27.209 330.671 27.6602 329.851 27.6602C328.832 27.6602 328.196 26.9766 328.176 25.8076H333.221V25.1924C333.221 22.9775 331.874 21.5215 329.728 21.5215C327.581 21.5215 326.207 23.0117 326.207 25.3428V25.3496C326.207 27.6943 327.567 29.1504 329.81 29.1504ZM329.762 23.0117C330.589 23.0117 331.184 23.5381 331.307 24.5498H328.196C328.326 23.5586 328.941 23.0117 329.762 23.0117ZM337.268 29.1504C339.154 29.1504 340.474 28.207 340.474 26.7715V26.7646C340.474 25.6846 339.845 25.083 338.313 24.7617L337.069 24.4951C336.331 24.3379 336.078 24.0918 336.078 23.7158V23.709C336.078 23.2373 336.509 22.9297 337.199 22.9297C337.938 22.9297 338.368 23.3262 338.437 23.8525L338.443 23.9072H340.282V23.8389C340.234 22.5537 339.147 21.5215 337.199 21.5215C335.333 21.5215 334.13 22.4238 334.13 23.8184V23.8252C334.13 24.9189 334.848 25.6299 336.27 25.9307L337.514 26.1904C338.231 26.3477 338.478 26.5732 338.478 26.9629V26.9697C338.478 27.4414 338.02 27.7354 337.268 27.7354C336.468 27.7354 336.037 27.4004 335.907 26.8262L335.894 26.7646H333.945L333.952 26.8262C334.109 28.2139 335.237 29.1504 337.268 29.1504Z" fill="#777E91"/>
<path d="M389.82 29H391.885V25.8896H393.785C395.863 25.8896 397.251 24.5498 397.251 22.5195V22.5059C397.251 20.4756 395.863 19.1357 393.785 19.1357H389.82V29ZM393.279 20.7695C394.462 20.7695 395.159 21.3916 395.159 22.5127V22.5264C395.159 23.6475 394.462 24.2764 393.279 24.2764H391.885V20.7695H393.279ZM398.304 29H400.3V24.8711C400.3 23.8389 400.874 23.2441 401.858 23.2441C402.146 23.2441 402.419 23.2852 402.583 23.3535V21.5967C402.433 21.5557 402.228 21.5215 402.009 21.5215C401.141 21.5215 400.519 22.0342 400.307 22.9229H400.266V21.6719H398.304V29ZM404.442 20.7285C405.044 20.7285 405.509 20.2568 405.509 19.6895C405.509 19.1221 405.044 18.6504 404.442 18.6504C403.841 18.6504 403.376 19.1221 403.376 19.6895C403.376 20.2568 403.841 20.7285 404.442 20.7285ZM403.444 29H405.44V21.6719H403.444V29ZM410.13 29.1504C412.085 29.1504 413.35 27.9336 413.445 26.334V26.293H411.586L411.579 26.3545C411.442 27.0928 410.943 27.585 410.144 27.585C409.159 27.585 408.544 26.7715 408.544 25.3359V25.3291C408.544 23.9277 409.159 23.0869 410.137 23.0869C410.964 23.0869 411.449 23.6201 411.572 24.3174L411.586 24.3789H413.438V24.3311C413.363 22.7451 412.099 21.5215 410.109 21.5215C407.915 21.5215 406.514 22.9775 406.514 25.3223V25.3291C406.514 27.6943 407.895 29.1504 410.13 29.1504ZM415.448 20.7285C416.05 20.7285 416.515 20.2568 416.515 19.6895C416.515 19.1221 416.05 18.6504 415.448 18.6504C414.847 18.6504 414.382 19.1221 414.382 19.6895C414.382 20.2568 414.847 20.7285 415.448 20.7285ZM414.45 29H416.446V21.6719H414.45V29ZM417.786 29H419.782V24.7891C419.782 23.832 420.35 23.1758 421.245 23.1758C422.141 23.1758 422.592 23.7227 422.592 24.6797V29H424.588V24.2695C424.588 22.5537 423.672 21.5215 422.059 21.5215C420.951 21.5215 420.199 22.0342 419.823 22.875H419.782V21.6719H417.786V29ZM429.277 31.543C431.479 31.543 432.853 30.4287 432.853 28.7949V21.6719H430.856V22.9229H430.815C430.419 22.0684 429.619 21.5215 428.587 21.5215C426.734 21.5215 425.586 22.9092 425.586 25.2471V25.2539C425.586 27.5303 426.721 28.8975 428.553 28.8975C429.612 28.8975 430.433 28.4121 430.815 27.6465H430.856V28.7676C430.856 29.5879 430.31 30.1211 429.277 30.1211C428.443 30.1211 427.91 29.8066 427.753 29.4443L427.732 29.3965H425.791L425.798 29.458C425.989 30.6338 427.261 31.543 429.277 31.543ZM429.243 27.4346C428.245 27.4346 427.616 26.6211 427.616 25.3018V25.2949C427.616 23.9824 428.252 23.1758 429.243 23.1758C430.214 23.1758 430.863 23.9893 430.863 25.2949V25.3018C430.863 26.6143 430.221 27.4346 429.243 27.4346Z" fill="#777E91"/>
<path d="M482.82 29H486.587C489.547 29 491.29 27.1611 491.29 24.0303V24.0166C491.29 20.8926 489.54 19.1357 486.587 19.1357H482.82V29ZM484.885 27.291V20.8379H486.341C488.152 20.8379 489.185 21.9658 489.185 24.0234V24.0371C489.185 26.1699 488.187 27.291 486.341 27.291H484.885ZM495.815 29.1504C498.03 29.1504 499.445 27.7285 499.445 25.3359V25.3223C499.445 22.9502 498.003 21.5215 495.809 21.5215C493.621 21.5215 492.186 22.9639 492.186 25.3223V25.3359C492.186 27.7217 493.587 29.1504 495.815 29.1504ZM495.822 27.585C494.838 27.585 494.216 26.7715 494.216 25.3359V25.3223C494.216 23.9072 494.845 23.0869 495.809 23.0869C496.779 23.0869 497.415 23.9072 497.415 25.3223V25.3359C497.415 26.7646 496.793 27.585 495.822 27.585ZM501.838 29H503.937L505.256 23.8184H505.297L506.623 29H508.749L510.69 21.6719H508.722L507.607 27.1064H507.566L506.261 21.6719H504.347L503.048 27.1064H503.007L501.899 21.6719H499.89L501.838 29ZM511.47 29H513.466V24.7891C513.466 23.832 514.033 23.1758 514.929 23.1758C515.824 23.1758 516.275 23.7227 516.275 24.6797V29H518.271V24.2695C518.271 22.5537 517.355 21.5215 515.742 21.5215C514.635 21.5215 513.883 22.0342 513.507 22.875H513.466V21.6719H511.47V29ZM519.584 29H521.58V19.1357H519.584V29ZM526.29 29.1504C528.505 29.1504 529.92 27.7285 529.92 25.3359V25.3223C529.92 22.9502 528.478 21.5215 526.283 21.5215C524.096 21.5215 522.66 22.9639 522.66 25.3223V25.3359C522.66 27.7217 524.062 29.1504 526.29 29.1504ZM526.297 27.585C525.312 27.585 524.69 26.7715 524.69 25.3359V25.3223C524.69 23.9072 525.319 23.0869 526.283 23.0869C527.254 23.0869 527.89 23.9072 527.89 25.3223V25.3359C527.89 26.7646 527.268 27.585 526.297 27.585ZM533.133 29.1162C534.097 29.1162 534.876 28.6582 535.293 27.9062H535.334V29H537.33V23.9756C537.33 22.499 536.106 21.5215 534.213 21.5215C532.278 21.5215 531.116 22.4922 531.007 23.8457L531 23.9277H532.825L532.839 23.8662C532.935 23.3945 533.386 23.0459 534.131 23.0459C534.91 23.0459 535.334 23.4492 535.334 24.0986V24.5498L533.522 24.6592C531.704 24.7754 530.672 25.5547 530.672 26.8877V26.9014C530.672 28.1934 531.663 29.1162 533.133 29.1162ZM532.647 26.7988V26.7852C532.647 26.2656 533.051 25.9375 533.823 25.8896L535.334 25.7939V26.3203C535.334 27.0859 534.678 27.6602 533.782 27.6602C533.092 27.6602 532.647 27.3389 532.647 26.7988ZM541.336 29.1504C542.396 29.1504 543.202 28.6172 543.592 27.749H543.633V29H545.629V19.1357H543.633V22.9434H543.592C543.195 22.0547 542.375 21.5215 541.336 21.5215C539.49 21.5215 538.355 22.9434 538.355 25.3291V25.3359C538.355 27.7148 539.49 29.1504 541.336 29.1504ZM542.006 27.4961C541.008 27.4961 540.386 26.6689 540.386 25.3359V25.3291C540.386 23.9893 541.015 23.1758 542.006 23.1758C542.97 23.1758 543.64 24.0098 543.64 25.3291V25.3359C543.64 26.6621 542.977 27.4961 542.006 27.4961Z" fill="#777E91"/>
<path d="M600.209 29.1709C602.595 29.1709 604.324 27.6738 604.516 25.5752L604.522 25.5H602.513L602.499 25.5684C602.232 26.7373 601.398 27.4209 600.209 27.4209C598.63 27.4209 597.618 26.1357 597.618 24.0576V24.0508C597.618 21.9863 598.63 20.7148 600.209 20.7148C601.439 20.7148 602.246 21.4258 602.479 22.5127L602.506 22.6289H604.516L604.509 22.5674C604.317 20.4756 602.602 18.9648 600.209 18.9648C597.331 18.9648 595.513 20.8789 595.513 24.0576V24.0645C595.513 27.2432 597.324 29.1709 600.209 29.1709ZM605.678 29H607.674V19.1357H605.678V29ZM611.201 29.1162C612.165 29.1162 612.944 28.6582 613.361 27.9062H613.402V29H615.398V23.9756C615.398 22.499 614.175 21.5215 612.281 21.5215C610.347 21.5215 609.185 22.4922 609.075 23.8457L609.068 23.9277H610.894L610.907 23.8662C611.003 23.3945 611.454 23.0459 612.199 23.0459C612.979 23.0459 613.402 23.4492 613.402 24.0986V24.5498L611.591 24.6592C609.772 24.7754 608.74 25.5547 608.74 26.8877V26.9014C608.74 28.1934 609.731 29.1162 611.201 29.1162ZM610.716 26.7988V26.7852C610.716 26.2656 611.119 25.9375 611.892 25.8896L613.402 25.7939V26.3203C613.402 27.0859 612.746 27.6602 611.851 27.6602C611.16 27.6602 610.716 27.3389 610.716 26.7988ZM619.705 29.1504C621.592 29.1504 622.911 28.207 622.911 26.7715V26.7646C622.911 25.6846 622.282 25.083 620.751 24.7617L619.507 24.4951C618.769 24.3379 618.516 24.0918 618.516 23.7158V23.709C618.516 23.2373 618.946 22.9297 619.637 22.9297C620.375 22.9297 620.806 23.3262 620.874 23.8525L620.881 23.9072H622.72V23.8389C622.672 22.5537 621.585 21.5215 619.637 21.5215C617.771 21.5215 616.567 22.4238 616.567 23.8184V23.8252C616.567 24.9189 617.285 25.6299 618.707 25.9307L619.951 26.1904C620.669 26.3477 620.915 26.5732 620.915 26.9629V26.9697C620.915 27.4414 620.457 27.7354 619.705 27.7354C618.905 27.7354 618.475 27.4004 618.345 26.8262L618.331 26.7646H616.383L616.39 26.8262C616.547 28.2139 617.675 29.1504 619.705 29.1504ZM626.91 29.1504C628.797 29.1504 630.116 28.207 630.116 26.7715V26.7646C630.116 25.6846 629.487 25.083 627.956 24.7617L626.712 24.4951C625.974 24.3379 625.721 24.0918 625.721 23.7158V23.709C625.721 23.2373 626.151 22.9297 626.842 22.9297C627.58 22.9297 628.011 23.3262 628.079 23.8525L628.086 23.9072H629.925V23.8389C629.877 22.5537 628.79 21.5215 626.842 21.5215C624.976 21.5215 623.772 22.4238 623.772 23.8184V23.8252C623.772 24.9189 624.49 25.6299 625.912 25.9307L627.156 26.1904C627.874 26.3477 628.12 26.5732 628.12 26.9629V26.9697C628.12 27.4414 627.662 27.7354 626.91 27.7354C626.11 27.7354 625.68 27.4004 625.55 26.8262L625.536 26.7646H623.588L623.595 26.8262C623.752 28.2139 624.88 29.1504 626.91 29.1504Z" fill="#777E91"/>
<path fill-rule="evenodd" clip-rule="evenodd" d="M655.207 21.7929C654.817 21.4024 654.183 21.4024 653.793 21.7929L651 24.5858L648.207 21.7929C647.817 21.4024 647.183 21.4024 646.793 21.7929C646.402 22.1834 646.402 22.8166 646.793 23.2071L650.293 26.7071C650.683 27.0976 651.317 27.0976 651.707 26.7071L655.207 23.2071C655.598 22.8166 655.598 22.1834 655.207 21.7929Z" fill="#777E91"/>
<path d="M703.82 29H710.198V27.2979H705.885V19.1357H703.82V29ZM712.29 20.7285C712.892 20.7285 713.356 20.2568 713.356 19.6895C713.356 19.1221 712.892 18.6504 712.29 18.6504C711.688 18.6504 711.224 19.1221 711.224 19.6895C711.224 20.2568 711.688 20.7285 712.29 20.7285ZM711.292 29H713.288V21.6719H711.292V29ZM715.161 29H717.157V23.1758H718.565V21.6719H717.109V21.1592C717.109 20.6328 717.403 20.3525 718.066 20.3525C718.251 20.3525 718.442 20.3594 718.579 20.3867V19.0674C718.347 19.0195 717.943 18.9854 717.574 18.9854C715.845 18.9854 715.161 19.6484 715.161 21.084V21.6719H714.163V23.1758H715.161V29ZM722.435 29.1504C724.526 29.1504 725.538 27.9131 725.764 26.833L725.784 26.7578H723.952L723.938 26.7988C723.795 27.209 723.296 27.6602 722.476 27.6602C721.457 27.6602 720.821 26.9766 720.801 25.8076H725.846V25.1924C725.846 22.9775 724.499 21.5215 722.353 21.5215C720.206 21.5215 718.832 23.0117 718.832 25.3428V25.3496C718.832 27.6943 720.192 29.1504 722.435 29.1504ZM722.387 23.0117C723.214 23.0117 723.809 23.5381 723.932 24.5498H720.821C720.951 23.5586 721.566 23.0117 722.387 23.0117ZM729.893 29.1504C731.779 29.1504 733.099 28.207 733.099 26.7715V26.7646C733.099 25.6846 732.47 25.083 730.938 24.7617L729.694 24.4951C728.956 24.3379 728.703 24.0918 728.703 23.7158V23.709C728.703 23.2373 729.134 22.9297 729.824 22.9297C730.562 22.9297 730.993 23.3262 731.062 23.8525L731.068 23.9072H732.907V23.8389C732.859 22.5537 731.772 21.5215 729.824 21.5215C727.958 21.5215 726.755 22.4238 726.755 23.8184V23.8252C726.755 24.9189 727.473 25.6299 728.895 25.9307L730.139 26.1904C730.856 26.3477 731.103 26.5732 731.103 26.9629V26.9697C731.103 27.4414 730.645 27.7354 729.893 27.7354C729.093 27.7354 728.662 27.4004 728.532 26.8262L728.519 26.7646H726.57L726.577 26.8262C726.734 28.2139 727.862 29.1504 729.893 29.1504ZM736.995 29.1504C737.412 29.1504 737.733 29.1094 737.959 29.0752V27.6123C737.836 27.626 737.706 27.6465 737.528 27.6465C736.927 27.6465 736.619 27.4141 736.619 26.7305V23.1758H737.959V21.6719H736.619V19.8809H734.603V21.6719H733.584V23.1758H734.603V26.9492C734.603 28.5215 735.368 29.1504 736.995 29.1504ZM740.208 31.4131C741.835 31.4131 742.819 30.8594 743.394 29.1299L745.909 21.6719H743.804L742.252 27.4004H742.197L740.652 21.6719H738.458L741.049 29L740.96 29.2393C740.782 29.7383 740.454 29.9092 739.859 29.9092C739.565 29.9092 739.333 29.8682 739.189 29.8408V31.3242C739.422 31.3652 739.818 31.4131 740.208 31.4131ZM746.654 29H748.65V19.1357H746.654V29ZM753.333 29.1504C755.425 29.1504 756.437 27.9131 756.662 26.833L756.683 26.7578H754.851L754.837 26.7988C754.693 27.209 754.194 27.6602 753.374 27.6602C752.355 27.6602 751.72 26.9766 751.699 25.8076H756.744V25.1924C756.744 22.9775 755.397 21.5215 753.251 21.5215C751.104 21.5215 749.73 23.0117 749.73 25.3428V25.3496C749.73 27.6943 751.091 29.1504 753.333 29.1504ZM753.285 23.0117C754.112 23.0117 754.707 23.5381 754.83 24.5498H751.72C751.85 23.5586 752.465 23.0117 753.285 23.0117Z" fill="#777E91"/>
</svg>
