<?xml version="1.0" encoding="iso-8859-1"?>
<!-- Generator: Adobe Illustrator 19.0.0, SVG Export Plug-In . SVG Version: 6.00 Build 0)  -->
<svg version="1.1" id="Capa_1" xmlns="http://www.w3.org/2000/svg" xmlns:xlink="http://www.w3.org/1999/xlink" x="0px" y="0px"
	 viewBox="0 0 490 490" style="enable-background:new 0 0 490 490;" xml:space="preserve">
<g>
	<path d="M469.2,117.44h-97.5c32.2-37.2,18.1-79.2-4.4-97.8c-13.5-11.1-74.6-45.7-123.4,16.8c-30.3-49.4-97.1-41-122.2-15.8
		c-27.6,27.6-33.4,63.8-5.4,96.8H20.8c-11.4,0-20.8,9.4-20.8,20.8v97.8c0,11.4,9.4,20.8,20.8,20.8h13.5v212.3
		c0,11.4,9.4,20.8,20.8,20.8h378.7c11.4,0,19.8-9.4,20.8-20.8v-212.2h14.6c11.4,0,20.8-9.4,20.8-20.8v-97.8
		C490,126.84,480.6,117.44,469.2,117.44z M286.1,50.84c39.6-29.9,63.5,7.2,63.5,20.8c0,40.6-84.3,57.7-84.3,23.9
		C265.3,81.04,273.8,60.14,286.1,50.84z M148.8,50.84c41.5-39.5,92.5,24.1,71.8,55.2c-2.5,3.7-9.4,4.1-16.6,4.2
		C172.2,110.34,114.8,83.14,148.8,50.84z M223.7,449.44H75.9v-192.5h147.7v192.5H223.7z M413,449.44H265.3v-192.5H413V449.44z
		 M448.4,216.34H40.6v-57.2h407.8V216.34z"/>
</g>
<g>
</g>
<g>
</g>
<g>
</g>
<g>
</g>
<g>
</g>
<g>
</g>
<g>
</g>
<g>
</g>
<g>
</g>
<g>
</g>
<g>
</g>
<g>
</g>
<g>
</g>
<g>
</g>
<g>
</g>
</svg>
