<svg width="165" height="32" viewBox="0 0 165 32" fill="none" xmlns="http://www.w3.org/2000/svg">
<path d="M16 0C7.2 0 0 7.2 0 16C0 24.8 7.2 32 16 32C24.8 32 32 24.8 32 16C32 7.2 24.8 0 16 0ZM24.1333 17.3333C24.4 19.7333 25.3333 22 26.6667 24C26.1333 24.6667 25.4667 25.3333 24.8 26C22.8 23.4667 21.6 20.5333 21.3333 17.3333H17.3333V29.2C16.9333 29.2 16.4 29.3333 16 29.3333C15.6 29.3333 15.0667 29.3333 14.6667 29.2V17.3333H10.6667C10.4 20.5333 9.2 23.4667 7.2 26C6.53333 25.3333 5.86667 24.6667 5.33333 24C6.8 22 7.73333 19.7333 7.86667 17.3333H2.8C2.66667 16.9333 2.66667 16.4 2.66667 16C2.66667 15.6 2.66667 15.0667 2.8 14.6667H8C7.73333 12.2667 6.8 10 5.33333 8C5.86667 7.33333 6.53333 6.66667 7.2 6C9.2 8.53333 10.4 11.4667 10.6667 14.6667H14.6667V2.8C15.0667 2.66667 15.6 2.66667 16 2.66667C16.4 2.66667 16.9333 2.66667 17.3333 2.8V14.6667H21.3333C21.6 11.4667 22.8 8.53333 24.8 6C25.4667 6.66667 26.1333 7.33333 26.6667 8C25.2 10 24.2667 12.2667 24.1333 14.6667H29.3333C29.3333 15.0667 29.4667 15.6 29.4667 16C29.4667 16.4 29.4667 16.9333 29.3333 17.3333H24.1333Z" fill="#23262F"/>
<path d="M49.333 22.3067C48.6144 22.3067 47.9631 22.1562 47.3792 21.8554C46.7953 21.5545 46.3611 21.201 46.0767 20.7949V22.0585H43V5.13538H46.0767V12.04C46.3611 11.6338 46.7953 11.2803 47.3792 10.9795C47.9631 10.6786 48.6144 10.5282 49.333 10.5282C50.8152 10.5282 52.0653 11.1074 53.0834 12.2656C54.1015 13.4239 54.6105 14.8079 54.6105 16.4174C54.6105 18.027 54.1015 19.4109 53.0834 20.5692C52.0653 21.7275 50.8152 22.3067 49.333 22.3067ZM46.5932 18.6287C47.1172 19.2003 47.8059 19.4862 48.6593 19.4862C49.5127 19.4862 50.1939 19.2003 50.7029 18.6287C51.2269 18.0571 51.4889 17.32 51.4889 16.4174C51.4889 15.5149 51.2269 14.7778 50.7029 14.2062C50.1939 13.6345 49.5127 13.3487 48.6593 13.3487C47.8059 13.3487 47.1172 13.6345 46.5932 14.2062C46.0842 14.7778 45.8296 15.5149 45.8296 16.4174C45.8296 17.32 46.0842 18.0571 46.5932 18.6287Z" fill="#23262F"/>
<path d="M60.9702 22.3067C59.488 22.3067 58.2379 21.7275 57.2198 20.5692C56.2017 19.4109 55.6927 18.027 55.6927 16.4174C55.6927 14.8079 56.2017 13.4239 57.2198 12.2656C58.2379 11.1074 59.488 10.5282 60.9702 10.5282C61.6888 10.5282 62.3326 10.6786 62.9016 10.9795C63.4705 11.2803 63.9047 11.6338 64.2041 12.04V10.7764H67.2808V22.0585H64.2041V20.7949C63.9047 21.201 63.4705 21.5545 62.9016 21.8554C62.3326 22.1562 61.6888 22.3067 60.9702 22.3067ZM59.5554 18.6287C60.0794 19.2003 60.7681 19.4862 61.6215 19.4862C62.4749 19.4862 63.1561 19.2003 63.6651 18.6287C64.1891 18.0571 64.4511 17.32 64.4511 16.4174C64.4511 15.5149 64.1891 14.7778 63.6651 14.2062C63.1561 13.6345 62.4749 13.3487 61.6215 13.3487C60.7681 13.3487 60.0794 13.6345 59.5554 14.2062C59.0463 14.7778 58.7918 15.5149 58.7918 16.4174C58.7918 17.32 59.0463 18.0571 59.5554 18.6287Z" fill="#23262F"/>
<path d="M75.0553 22.3067C73.3784 22.3067 71.9636 21.7501 70.8108 20.6369C69.673 19.5087 69.104 18.1022 69.104 16.4174C69.104 14.7327 69.673 13.3337 70.8108 12.2205C71.9636 11.0923 73.3784 10.5282 75.0553 10.5282C76.2081 10.5282 77.2561 10.8291 78.1993 11.4308C79.1575 12.0174 79.8836 12.7997 80.3777 13.7774L77.7052 15.2215C77.4657 14.68 77.1139 14.2438 76.6497 13.9128C76.2006 13.5819 75.6691 13.4164 75.0553 13.4164C74.2468 13.4164 73.5656 13.7022 73.0116 14.2738C72.4727 14.8455 72.2032 15.56 72.2032 16.4174C72.2032 17.2749 72.4727 17.9894 73.0116 18.561C73.5656 19.1327 74.2468 19.4185 75.0553 19.4185C75.6691 19.4185 76.2006 19.253 76.6497 18.9221C77.1139 18.5911 77.4657 18.1549 77.7052 17.6133L80.3777 19.0574C79.8836 20.0352 79.1575 20.825 78.1993 21.4267C77.2561 22.0133 76.2081 22.3067 75.0553 22.3067Z" fill="#23262F"/>
<path d="M84.9729 22.0585H81.8962V5.13538H84.9729V12.0626C85.6616 11.0397 86.7321 10.5282 88.1843 10.5282C89.5318 10.5282 90.5873 10.9795 91.3508 11.8821C92.1293 12.7696 92.5186 13.9579 92.5186 15.4472V22.0585H89.4419V15.9662C89.4419 15.1388 89.2697 14.4995 88.9254 14.0482C88.5811 13.5819 88.0945 13.3487 87.4657 13.3487C86.7171 13.3487 86.1107 13.6195 85.6466 14.161C85.1975 14.7026 84.9729 15.4998 84.9729 16.5528V22.0585Z" fill="#23262F"/>
<path d="M104.111 22.3067C102.628 22.3067 101.378 21.7275 100.36 20.5692C99.3421 19.4109 98.833 18.027 98.833 16.4174C98.833 14.8079 99.3421 13.4239 100.36 12.2656C101.378 11.1074 102.628 10.5282 104.111 10.5282C104.829 10.5282 105.473 10.6786 106.042 10.9795C106.611 11.2803 107.045 11.6338 107.344 12.04V5.13538H110.421V22.0585H107.344V20.7949C107.045 21.201 106.611 21.5545 106.042 21.8554C105.473 22.1562 104.829 22.3067 104.111 22.3067ZM102.696 18.6287C103.22 19.2003 103.908 19.4862 104.762 19.4862C105.615 19.4862 106.296 19.2003 106.805 18.6287C107.329 18.0571 107.591 17.32 107.591 16.4174C107.591 15.5149 107.329 14.7778 106.805 14.2062C106.296 13.6345 105.615 13.3487 104.762 13.3487C103.908 13.3487 103.22 13.6345 102.696 14.2062C102.187 14.7778 101.932 15.5149 101.932 16.4174C101.932 17.32 102.187 18.0571 102.696 18.6287Z" fill="#23262F"/>
<path d="M117.522 22.3067C116.04 22.3067 114.79 21.7275 113.771 20.5692C112.753 19.4109 112.244 18.027 112.244 16.4174C112.244 14.8079 112.753 13.4239 113.771 12.2656C114.79 11.1074 116.04 10.5282 117.522 10.5282C118.241 10.5282 118.884 10.6786 119.453 10.9795C120.022 11.2803 120.456 11.6338 120.756 12.04V10.7764H123.832V22.0585H120.756V20.7949C120.456 21.201 120.022 21.5545 119.453 21.8554C118.884 22.1562 118.241 22.3067 117.522 22.3067ZM116.107 18.6287C116.631 19.2003 117.32 19.4862 118.173 19.4862C119.027 19.4862 119.708 19.2003 120.217 18.6287C120.741 18.0571 121.003 17.32 121.003 16.4174C121.003 15.5149 120.741 14.7778 120.217 14.2062C119.708 13.6345 119.027 13.3487 118.173 13.3487C117.32 13.3487 116.631 13.6345 116.107 14.2062C115.598 14.7778 115.343 15.5149 115.343 16.4174C115.343 17.32 115.598 18.0571 116.107 18.6287Z" fill="#23262F"/>
<path d="M131.809 22.1938C130.551 22.1938 129.518 21.8479 128.71 21.1559C127.916 20.4489 127.52 19.4335 127.52 18.1097V13.4841H125.251V10.7764H127.52V7.64H130.596V10.7764H133.763V13.4841H130.596V17.5005C130.596 18.1925 130.746 18.6889 131.045 18.9897C131.345 19.2756 131.831 19.4185 132.505 19.4185C132.984 19.4185 133.404 19.3508 133.763 19.2154V21.9456C133.224 22.1111 132.573 22.1938 131.809 22.1938Z" fill="#23262F"/>
<path d="M137.036 8.92615C136.512 8.92615 136.056 8.73812 135.666 8.36205C135.277 7.97094 135.082 7.50462 135.082 6.96308C135.082 6.42154 135.277 5.96274 135.666 5.58667C136.056 5.19556 136.512 5 137.036 5C137.59 5 138.054 5.19556 138.429 5.58667C138.818 5.96274 139.012 6.42154 139.012 6.96308C139.012 7.50462 138.818 7.97094 138.429 8.36205C138.054 8.73812 137.59 8.92615 137.036 8.92615ZM135.509 22.0585V10.7764H138.586V22.0585H135.509Z" fill="#23262F"/>
<path d="M141.091 22.0585V10.7764H144.168V12.0626C144.856 11.0397 145.927 10.5282 147.379 10.5282C148.727 10.5282 149.782 10.9795 150.546 11.8821C151.324 12.7696 151.713 13.9579 151.713 15.4472V22.0585H148.637V15.9662C148.637 15.1388 148.465 14.4995 148.12 14.0482C147.776 13.5819 147.289 13.3487 146.66 13.3487C145.912 13.3487 145.306 13.6195 144.841 14.161C144.392 14.7026 144.168 15.4998 144.168 16.5528V22.0585H141.091Z" fill="#23262F"/>
<path d="M157.297 18.3128C157.851 18.8544 158.525 19.1251 159.318 19.1251C160.112 19.1251 160.785 18.8544 161.339 18.3128C161.893 17.7713 162.17 17.0793 162.17 16.2369C162.17 15.3945 161.893 14.7026 161.339 14.161C160.785 13.6195 160.112 13.3487 159.318 13.3487C158.525 13.3487 157.851 13.6195 157.297 14.161C156.743 14.7026 156.466 15.3945 156.466 16.2369C156.466 17.0793 156.743 17.7713 157.297 18.3128ZM158.959 27C156.713 27 154.969 26.3983 153.726 25.1949L155.411 22.8933C156.354 23.826 157.522 24.2923 158.914 24.2923C159.812 24.2923 160.538 24.0065 161.092 23.4349C161.646 22.8632 161.923 22.1186 161.923 21.201V20.4338C161.609 20.8701 161.16 21.2311 160.576 21.5169C159.992 21.7877 159.356 21.9231 158.667 21.9231C157.2 21.9231 155.95 21.374 154.917 20.2759C153.884 19.1627 153.367 17.8164 153.367 16.2369C153.367 14.6424 153.884 13.2961 154.917 12.1979C155.95 11.0848 157.2 10.5282 158.667 10.5282C159.371 10.5282 160.007 10.6711 160.576 10.9569C161.16 11.2277 161.609 11.5887 161.923 12.04V10.7764H165V21.1785C165 23.119 164.446 24.5706 163.338 25.5333C162.23 26.5111 160.771 27 158.959 27Z" fill="#23262F"/>
</svg>
