<svg width="117" height="37" viewBox="0 0 117 37" fill="none" xmlns="http://www.w3.org/2000/svg">
<path d="M14.6582 11.25C11.0082 11.25 8.5082 12.8 7.0582 14.95V0.499998H0.208203V36H6.8582L7.0082 32.4C8.3582 34.7 10.7082 36.25 14.4082 36.25C21.0582 36.25 25.3082 30.95 25.3082 23.35C25.3082 15.6 20.8582 11.25 14.6582 11.25ZM12.8582 30.5C9.2082 30.5 7.0582 27.45 7.0582 24.5V22.95C7.0582 20.2 9.1082 17 12.9082 17C16.2582 17 18.3582 19.6 18.3582 23.65C18.3582 27.8 16.1082 30.5 12.8582 30.5ZM52.6898 30.35C52.1398 30.55 51.8898 30.6 51.4398 30.6C50.7398 30.6 50.2898 30.1 50.2898 29.1V21.2C50.2898 15 46.4898 11.25 39.3398 11.25C32.9898 11.25 28.6898 14.3 28.2898 19.85H34.4898C34.7398 17.75 36.3898 16.45 38.9898 16.45C42.0898 16.45 43.6398 18.15 43.6398 20.7V21.8H40.4898C33.7898 21.8 27.6398 23.55 27.6398 29.55C27.6398 33.6 30.5398 36.25 35.9398 36.25C41.1398 36.25 43.1898 33.8 43.9898 32.3H44.0398C44.8898 35 46.9398 36.25 49.5898 36.25C50.9898 36.25 52.1398 36.05 53.0898 35.75L52.6898 30.35ZM37.8398 31.25C35.4898 31.25 34.2898 30.35 34.2898 28.75C34.2898 26.6 36.4398 25.55 40.0898 25.55H43.6398V27.1C43.6398 29.05 41.4398 31.25 37.8398 31.25ZM66.5754 36.25C73.8754 36.25 77.4254 31.85 78.0754 26.5H71.4754C71.0754 28.8 69.8254 30.6 66.8254 30.6C63.5754 30.6 61.4254 28.2 61.4254 23.8C61.4254 19.3 63.6754 16.9 66.8754 16.9C69.7254 16.9 71.0754 18.75 71.4754 21.1H78.0754C77.4754 15.65 73.9754 11.25 66.6754 11.25C59.5754 11.25 54.5254 16.4 54.5254 23.8C54.5254 31.1 59.2254 36.25 66.5754 36.25ZM95.9832 11.25C92.2832 11.25 89.8332 12.85 88.3832 15.1V0.499998H81.5832V36H88.4832V22.3C88.4832 19.25 90.4332 17.2 93.4332 17.2C96.2332 17.2 97.7332 19.1 97.7332 22V36H104.583V20.25C104.583 15.25 101.583 11.25 95.9832 11.25ZM112.591 28C109.991 28 108.291 29.7 108.291 32.15C108.291 34.6 109.991 36.3 112.591 36.3C115.191 36.3 116.891 34.6 116.891 32.15C116.891 29.7 115.191 28 112.591 28Z" fill="black"/>
</svg>
